<svg width="78" height="78" viewBox="0 0 78 78" fill="none" xmlns="http://www.w3.org/2000/svg">
<path d="M65.7129 0H11.7458C5.23799 0 0 5.23799 0 11.7458V65.5542C0 65.5542 0 65.5542 0 65.7129V65.8717C0.158727 72.2207 5.39671 77.3 11.7458 77.3H65.7129C72.2207 77.3 77.4587 72.062 77.4587 65.5542V11.7458C77.4587 5.23799 72.062 0 65.7129 0ZM11.7458 7.14271H65.7129C68.2526 7.14271 70.316 9.20616 70.316 11.7458V60.6337L66.0304 53.1735C63.9669 49.5228 60.1575 47.3006 55.8719 47.3006C51.5862 47.3006 47.7768 49.5228 45.7133 53.1735V53.3322L35.7135 36.1897C33.6501 32.539 29.8407 30.3168 25.555 30.3168C21.2694 30.3168 17.46 32.539 15.3965 36.1897L7.30144 50.3164V11.7458C7.14271 9.20616 9.20616 7.14271 11.7458 7.14271ZM7.30144 65.7129C7.30144 64.9193 7.46016 64.1257 7.93634 63.4907L21.7456 39.6817C23.0154 37.6183 24.9201 37.4595 25.7138 37.4595C26.5074 37.4595 28.4121 37.6183 29.6819 39.6817L47.3006 70.1573H11.7458C9.36488 70.1573 7.30144 68.0938 7.30144 65.7129ZM55.3957 70.1573L51.11 62.6971C50.3164 61.2686 50.3164 59.5226 51.11 58.094L51.9037 56.6655C53.1735 54.602 55.0782 54.4433 55.8719 54.4433C56.6655 54.4433 58.5702 54.602 59.84 56.6655L67.4589 69.6811C66.9827 69.8398 66.3478 69.9986 65.7129 69.9986H55.3957V70.1573Z" fill="#A69867"/>
<path d="M51.5861 30.3168C56.9829 30.3168 61.4272 25.8725 61.4272 20.4758C61.4272 15.0791 56.9829 10.6347 51.5861 10.6347C46.1894 10.6347 41.9038 15.2378 41.9038 20.6345C41.9038 26.0312 46.1894 30.3168 51.5861 30.3168ZM51.5861 17.9361C53.0147 17.9361 54.2845 19.0472 54.2845 20.6345C54.2845 22.2218 53.1734 23.3329 51.5861 23.3329C49.9989 23.3329 48.8878 22.2218 48.8878 20.6345C48.8878 19.0472 50.1576 17.9361 51.5861 17.9361Z" fill="#A69867"/>
</svg>
